
		<svg xmlns="http://www.w3.org/2000/svg" xmlns:xlink="http://www.w3.org/1999/xlink" version="1.1" width="3131.578947368421" height="651.3157894736842">
			
			<g transform="scale(6.578947368421052) translate(10, 10)">
				<defs id="SvgjsDefs1115"></defs><g id="SvgjsG1116" featureKey="root" fill="#262825"></g><g id="SvgjsG1117" featureKey="symbol1" fill="#ffffff" transform="matrix(0.055319148936170216,0,0,0.055319148936170216,10,10)"><defs></defs><g><path class="fil0" d="M1527 97l-1409 0c-6,0 -11,2 -15,6l0 0c-4,4 -6,9 -6,15l0 835c0,6 2,11 6,15l0 0c4,4 9,7 15,7l1409 0c6,0 11,-3 15,-7l0 0c4,-4 7,-9 7,-15l0 -835c0,-6 -3,-11 -7,-15l0 0c-4,-4 -9,-6 -15,-6zm-1038 1150c-27,0 -48,-21 -48,-48 0,-27 21,-48 48,-48l667 0c27,0 49,21 49,48 0,27 -22,48 -49,48l-667 0zm-371 -1247l1409 0c32,0 62,13 83,35l0 0c22,21 35,51 35,83l0 835c0,32 -13,62 -35,83l0 0c-21,22 -51,35 -83,35l-1409 0c-32,0 -62,-13 -83,-35l0 0c-22,-21 -35,-51 -35,-83l0 -835c0,-32 13,-62 35,-83l0 0c21,-22 51,-35 83,-35z" style="fill: #fff; fill-rule: nonzero;"></path><path class="fil1" d="M602 569l66 0c17,0 31,14 31,31l0 0c0,17 -14,31 -31,31l-66 0c-17,0 -31,-14 -31,-31l0 0c0,-17 14,-31 31,-31zm376 0l65 0c17,0 31,14 31,31l0 0c0,17 -14,31 -31,31l-65 0c-17,0 -31,-14 -31,-31l0 0c0,-17 14,-31 31,-31zm-312 -128l313 0c10,0 20,1 29,3l-24 -62c-2,-7 -7,-13 -14,-19 -8,-6 -17,-10 -25,-11 -36,-6 -74,-10 -113,-10 -40,0 -82,3 -127,10 -9,1 -20,5 -29,11 -6,5 -11,10 -13,16l-25 65c9,-2 19,-3 28,-3zm-130 68l-54 -12c-6,-1 -10,-7 -9,-13l8 -48c0,-6 6,-11 12,-10l76 4c3,1 6,2 8,5l2 1 30 -78c7,-17 19,-31 35,-42 15,-11 35,-18 53,-21 47,-8 92,-11 135,-11 43,1 84,4 122,11 18,3 36,11 51,23 15,11 27,26 33,43l29 75 1 -1c2,-3 5,-4 8,-5l76 -4c7,-1 12,4 13,10l7 48c1,6 -3,12 -9,13l-54 12c18,26 29,57 29,91 0,25 -6,49 -16,70l0 118c0,14 -11,25 -25,25l-45 0c-14,0 -25,-11 -25,-25l0 -36c-15,5 -31,8 -48,8l-313 0c-16,0 -33,-3 -48,-8l0 36c0,14 -11,25 -25,25l-45 0c-13,0 -25,-11 -25,-25l0 -118c-10,-21 -16,-45 -16,-70 0,-34 11,-65 29,-91z" style="fill: #fff;"></path></g></g><g id="SvgjsG1118" featureKey="text1" fill="#873153" transform="matrix(2.3611336925304127,0,0,2.3611336925304127,120.72256635203593,0.19433378910049726)"><path d="M8.98 5.42 l5.6 13.22 c0.06 0.1 0.1 0.22 0.1 0.34 c0 0.38 -0.3 0.7 -0.7 0.7 l0 0 l-1.66 0 c-0.28 0 -0.54 -0.16 -0.64 -0.42 l-1.46 -3.44 l-5.66 0 l-1.44 3.44 c-0.1 0.26 -0.36 0.42 -0.64 0.42 l-1.66 0 c-0.24 0 -0.46 -0.12 -0.58 -0.32 c-0.14 -0.18 -0.16 -0.44 -0.06 -0.64 l5.64 -13.3 c0.1 -0.26 0.36 -0.42 0.64 -0.42 l1.88 0 c0.28 0 0.54 0.16 0.64 0.42 z M7.4 9.06 l-1.66 3.98 l3.32 0 z M28.240000000000002 5 c0.38 0 0.7 0.32 0.7 0.7 l0 7.56 c0 1.94 -0.6 3.54 -1.78 4.76 c-1.18 1.2 -2.72 1.82 -4.58 1.82 s-3.38 -0.62 -4.56 -1.82 c-1.18 -1.22 -1.78 -2.82 -1.78 -4.76 l0 -7.56 c0 -0.38 0.32 -0.7 0.7 -0.7 l1.5 0 c0.38 0 0.7 0.32 0.7 0.7 l0 7.6 c0 1.24 0.34 2.18 1.06 2.84 c0.6 0.56 1.38 0.84 2.38 0.84 c0.98 0 1.78 -0.28 2.4 -0.84 c0.7 -0.66 1.06 -1.58 1.06 -2.84 l0 -7.6 c0 -0.38 0.3 -0.7 0.68 -0.7 l1.52 0 z M42.160000000000004 5 c0.38 0 0.68 0.32 0.68 0.7 l0 1.44 c0 0.38 -0.3 0.7 -0.68 0.7 l-3.94 0 l0 11.14 c0 0.38 -0.32 0.7 -0.7 0.7 l-1.5 0 c-0.4 0 -0.7 -0.32 -0.7 -0.7 l0 -11.14 l-3.94 0 c-0.38 0 -0.7 -0.32 -0.7 -0.7 l0 -1.44 c0 -0.38 0.32 -0.7 0.7 -0.7 l10.78 0 z M51.34 5 c2.16 0 3.98 0.74 5.38 2.2 c1.36 1.42 2.06 3.2 2.06 5.3 s-0.7 3.88 -2.06 5.3 c-1.4 1.46 -3.22 2.2 -5.38 2.2 s-3.98 -0.74 -5.38 -2.2 c-1.36 -1.42 -2.06 -3.2 -2.06 -5.3 s0.7 -3.88 2.06 -5.3 c1.4 -1.46 3.22 -2.2 5.38 -2.2 z M51.34 17.14 c1.4 0 2.48 -0.44 3.32 -1.32 c0.82 -0.86 1.22 -1.96 1.22 -3.32 s-0.4 -2.44 -1.22 -3.32 c-0.84 -0.88 -1.92 -1.32 -3.32 -1.32 s-2.48 0.44 -3.32 1.32 c-0.82 0.88 -1.22 1.96 -1.22 3.32 s0.4 2.46 1.22 3.32 c0.84 0.88 1.92 1.32 3.32 1.32 z M71.74000000000001 12.18 c0.7 0.44 1.2 1.06 1.52 1.84 c0.2 0.46 0.28 1 0.28 1.58 c0 1.94 -1.06 3.28 -3.06 3.92 c-0.64 0.22 -1.38 0.32 -2.22 0.32 l-6.38 0 c-0.38 0 -0.7 -0.32 -0.7 -0.7 l0 -1.44 c0 -0.4 0.32 -0.72 0.7 -0.72 l6.54 0 c0.76 0 1.34 -0.14 1.72 -0.42 c0.32 -0.26 0.48 -0.6 0.48 -1.08 s-0.16 -0.84 -0.5 -1.14 c-0.42 -0.36 -1.04 -0.54 -1.86 -0.54 l-6.38 0 c-0.38 0 -0.7 -0.32 -0.7 -0.72 l0 -1.38 c0 -0.38 0.32 -0.7 0.7 -0.7 l6.02 0 c1.28 0 1.68 -0.5 1.88 -0.88 c0.1 -0.2 0.14 -0.42 0.14 -0.66 c0 -0.26 -0.04 -0.48 -0.1 -0.66 s-0.16 -0.32 -0.28 -0.44 c-0.32 -0.36 -0.8 -0.5 -1.46 -0.5 l-6.2 0 c-0.38 0 -0.7 -0.32 -0.7 -0.72 l0 -1.44 c0 -0.38 0.32 -0.7 0.7 -0.7 l6.02 0 c1.64 0 2.92 0.46 3.82 1.4 c0.74 0.74 1.14 1.7 1.14 2.86 c0 1.22 -0.38 2.2 -1.12 2.92 z M78.2 10.94 c0.4 0 0.7 0.32 0.7 0.72 l0 7.48 c0 0.38 -0.3 0.7 -0.7 0.7 l-1.52 0 c-0.38 0 -0.7 -0.32 -0.7 -0.7 l0 -7.48 c0 -0.4 0.32 -0.72 0.7 -0.72 l1.52 0 z M78.2 5 c0.4 0 0.7 0.32 0.7 0.7 l0 3.7 c0 0.4 -0.3 0.72 -0.7 0.72 l-1.52 0 c-0.38 0 -0.7 -0.32 -0.7 -0.72 l0 -3.7 c0 -0.38 0.32 -0.7 0.7 -0.7 l1.52 0 z"></path></g><g id="SvgjsG1119" featureKey="text3" fill="#b3b5b8" transform="matrix(0.8024198907821914,0,0,0.8024198907821914,120.72222001046634,61.923706633422626)"><path d="M0.4 19.46 l6.94 -13.86 c0.16 -0.32 0.64 -0.32 0.8 0 l6.94 13.86 c0.16 0.3 0.02 0.54 -0.32 0.54 l-1.82 0 c-0.34 0 -0.74 -0.24 -0.88 -0.56 l-0.6 -1.2 c-0.16 -0.3 -0.54 -0.54 -0.88 -0.54 l-5.68 0 c-0.34 0 -0.74 0.24 -0.88 0.56 l-0.58 1.18 c-0.16 0.32 -0.54 0.56 -0.88 0.56 l-1.82 0 c-0.34 0 -0.48 -0.24 -0.34 -0.54 z M6.26 15.26 l2.96 0 c0.34 0 0.48 -0.26 0.34 -0.56 l-1.56 -3.3 c-0.14 -0.32 -0.38 -0.32 -0.52 0 l-1.58 3.3 c-0.14 0.32 0.02 0.56 0.36 0.56 z M20.78 19.82 c-0.78 -0.3 -1.44 -0.7 -1.98 -1.24 c-0.56 -0.54 -0.98 -1.18 -1.28 -1.94 s-0.44 -1.6 -0.44 -2.54 l0 -8.1 c0 -0.34 0.28 -0.62 0.6 -0.62 l1.58 0 c0.34 0 0.62 0.28 0.62 0.62 l0 8.08 c0 0.74 0.12 1.34 0.36 1.82 s0.54 0.86 0.88 1.14 c0.36 0.28 0.74 0.48 1.14 0.58 c0.42 0.1 0.78 0.16 1.1 0.16 s0.68 -0.06 1.08 -0.16 c0.42 -0.1 0.8 -0.3 1.14 -0.58 c0.36 -0.28 0.66 -0.66 0.9 -1.14 s0.36 -1.08 0.36 -1.82 l0 -8.08 c0 -0.34 0.28 -0.62 0.62 -0.62 l1.56 0 c0.34 0 0.62 0.28 0.62 0.62 l0 8.1 c0 0.94 -0.16 1.78 -0.44 2.54 c-0.3 0.76 -0.72 1.4 -1.26 1.94 c-0.56 0.54 -1.22 0.94 -1.98 1.24 c-0.78 0.3 -1.64 0.44 -2.6 0.44 s-1.82 -0.14 -2.58 -0.44 z M42.74 7.84 l-2.94 0 c-0.34 0 -0.62 0.28 -0.62 0.62 l0 10.92 c0 0.34 -0.28 0.62 -0.62 0.62 l-1.56 0 c-0.34 0 -0.62 -0.28 -0.62 -0.62 l0 -10.92 c0 -0.34 -0.28 -0.62 -0.62 -0.62 l-2.96 0 c-0.34 0 -0.62 -0.28 -0.62 -0.62 l0 -1.24 c0 -0.34 0.28 -0.62 0.62 -0.62 l9.94 0 c0.34 0 0.62 0.28 0.62 0.62 l0 1.24 c0 0.34 -0.28 0.62 -0.62 0.62 z M52.12 20.28 c-4.18 0 -7.58 -3.4 -7.58 -7.6 c0 -4.18 3.4 -7.6 7.58 -7.6 c4.2 0 7.6 3.42 7.6 7.6 c0 4.2 -3.4 7.6 -7.6 7.6 z M52.12 7.699999999999999 c-2.64 0 -4.8 2.34 -4.8 4.98 c0 2.66 2.16 5 4.8 5 c2.66 0 4.8 -2.34 4.8 -5 c0 -2.64 -2.14 -4.98 -4.8 -4.98 z M76.94 5.699999999999999 l0 13.68 c0 0.34 -0.28 0.62 -0.6 0.62 l-1.58 0 c-0.34 0 -0.62 -0.28 -0.62 -0.62 l0 -6.16 c0 -0.34 -0.18 -0.42 -0.38 -0.14 l-3.8 4.54 c-0.22 0.26 -0.58 0.26 -0.78 0 l-3.78 -4.54 c-0.22 -0.26 -0.4 -0.2 -0.4 0.14 l0 6.16 c0 0.34 -0.28 0.62 -0.62 0.62 l-1.56 0 c-0.34 0 -0.62 -0.28 -0.62 -0.62 l0 -13.68 c0 -0.34 0.42 -0.4 0.64 -0.14 l6.32 7.8 c0.22 0.24 0.58 0.24 0.8 0 l6.34 -7.8 c0.22 -0.26 0.64 -0.2 0.64 0.14 z M87 20.28 c-4.18 0 -7.58 -3.4 -7.58 -7.6 c0 -4.18 3.4 -7.6 7.58 -7.6 c4.2 0 7.6 3.42 7.6 7.6 c0 4.2 -3.4 7.6 -7.6 7.6 z M87 7.699999999999999 c-2.64 0 -4.8 2.34 -4.8 4.98 c0 2.66 2.16 5 4.8 5 c2.66 0 4.8 -2.34 4.8 -5 c0 -2.64 -2.14 -4.98 -4.8 -4.98 z M106.98 7.84 l-2.94 0 c-0.34 0 -0.62 0.28 -0.62 0.62 l0 10.92 c0 0.34 -0.28 0.62 -0.62 0.62 l-1.56 0 c-0.34 0 -0.62 -0.28 -0.62 -0.62 l0 -10.92 c0 -0.34 -0.28 -0.62 -0.62 -0.62 l-2.96 0 c-0.34 0 -0.62 -0.28 -0.62 -0.62 l0 -1.24 c0 -0.34 0.28 -0.62 0.62 -0.62 l9.94 0 c0.34 0 0.62 0.28 0.62 0.62 l0 1.24 c0 0.34 -0.28 0.62 -0.62 0.62 z M112.1 20 l-1.58 0 c-0.34 0 -0.6 -0.28 -0.6 -0.62 l0 -13.38 c0 -0.34 0.26 -0.62 0.6 -0.62 l1.58 0 c0.34 0 0.62 0.28 0.62 0.62 l0 13.38 c0 0.34 -0.28 0.62 -0.62 0.62 z M128.76 5.9399999999999995 l-6.4 13.8 c-0.14 0.3 -0.62 0.3 -0.76 0 l-6.38 -13.8 c-0.14 -0.32 0.02 -0.56 0.34 -0.56 l1.86 0 c0.34 0 0.74 0.24 0.88 0.56 l3.42 7.36 c0.14 0.3 0.38 0.3 0.52 0 l3.42 -7.36 c0.14 -0.32 0.54 -0.56 0.88 -0.56 l1.86 0 c0.34 0 0.5 0.24 0.36 0.56 z M133.54 8.46 l0 2.42 c0 0.34 0.28 0.62 0.62 0.62 l5.84 0 c0.34 0 0.62 0.28 0.62 0.62 l0 1.3 c0 0.34 -0.28 0.62 -0.62 0.62 l-5.84 0 c-0.34 0 -0.62 0.28 -0.62 0.62 l0 2.2 c0 0.34 0.28 0.62 0.62 0.62 l6.74 0 c0.34 0 0.62 0.28 0.62 0.62 l0 1.28 c0 0.34 -0.28 0.62 -0.62 0.62 l-9.54 0 c-0.34 0 -0.62 -0.28 -0.62 -0.62 l0 -13.4 c0 -0.34 0.28 -0.62 0.62 -0.62 l9.54 0 c0.34 0 0.62 0.28 0.62 0.62 l0 1.24 c0 0.34 -0.28 0.62 -0.62 0.62 l-6.74 0 c-0.34 0 -0.62 0.28 -0.62 0.62 z  M161.77999999999997 10.38 c-0.12 0.32 -0.28 0.64 -0.48 0.92 s-0.46 0.52 -0.76 0.7 c-0.14 0.1 -0.3 0.18 -0.46 0.24 c-0.26 0.08 -0.24 0.1 0.06 0.18 c0.18 0.06 0.34 0.12 0.52 0.2 c0.36 0.18 0.66 0.42 0.94 0.74 c0.28 0.3 0.52 0.66 0.7 1.06 s0.26 0.82 0.26 1.26 c0 0.8 -0.12 1.48 -0.36 2.04 c-0.24 0.54 -0.56 1 -0.98 1.34 c-0.4 0.34 -0.88 0.58 -1.44 0.72 s-1.14 0.22 -1.78 0.22 l-6.14 0 c-0.34 0 -0.62 -0.28 -0.62 -0.62 l0 -13.4 c0 -0.34 0.28 -0.62 0.62 -0.62 l5.82 0 c0.6 0 1.14 0.06 1.66 0.16 c0.52 0.12 0.98 0.32 1.36 0.64 c0.4 0.3 0.7 0.7 0.92 1.24 c0.24 0.52 0.34 1.2 0.34 2.02 c0 0.3 -0.06 0.62 -0.18 0.96 z M154.66 11.32 l2.82 0 c0.28 0 0.54 -0.06 0.74 -0.16 s0.38 -0.26 0.52 -0.42 c0.14 -0.18 0.24 -0.38 0.32 -0.6 s0.1 -0.44 0.1 -0.66 c0 -0.2 -0.04 -0.42 -0.12 -0.62 s-0.18 -0.38 -0.32 -0.52 c-0.12 -0.14 -0.28 -0.26 -0.46 -0.36 s-0.38 -0.14 -0.58 -0.14 l-3.02 0 c-0.34 0 -0.62 0.28 -0.62 0.62 l0 2.24 c0 0.34 0.28 0.62 0.62 0.62 z M158.67999999999998 17.34 c0.22 -0.1 0.4 -0.26 0.56 -0.46 c0.16 -0.18 0.3 -0.4 0.38 -0.64 c0.1 -0.22 0.14 -0.46 0.14 -0.7 c0 -0.5 -0.18 -0.9 -0.54 -1.24 s-0.88 -0.5 -1.52 -0.5 l-3.04 0 c-0.34 0 -0.62 0.28 -0.62 0.62 l0 2.48 c0 0.34 0.28 0.62 0.62 0.62 l3.34 0 c0.24 0 0.48 -0.06 0.68 -0.18 z M168.84 19.82 c-0.78 -0.3 -1.44 -0.7 -1.98 -1.24 c-0.56 -0.54 -0.98 -1.18 -1.28 -1.94 s-0.44 -1.6 -0.44 -2.54 l0 -8.1 c0 -0.34 0.28 -0.62 0.6 -0.62 l1.58 0 c0.34 0 0.62 0.28 0.62 0.62 l0 8.08 c0 0.74 0.12 1.34 0.36 1.82 s0.54 0.86 0.88 1.14 c0.36 0.28 0.74 0.48 1.14 0.58 c0.42 0.1 0.78 0.16 1.1 0.16 s0.68 -0.06 1.08 -0.16 c0.42 -0.1 0.8 -0.3 1.14 -0.58 c0.36 -0.28 0.66 -0.66 0.9 -1.14 s0.36 -1.08 0.36 -1.82 l0 -8.08 c0 -0.34 0.28 -0.62 0.62 -0.62 l1.56 0 c0.34 0 0.62 0.28 0.62 0.62 l0 8.1 c0 0.94 -0.16 1.78 -0.44 2.54 c-0.3 0.76 -0.72 1.4 -1.26 1.94 c-0.56 0.54 -1.22 0.94 -1.98 1.24 c-0.78 0.3 -1.64 0.44 -2.6 0.44 s-1.82 -0.14 -2.58 -0.44 z M180.66 17.58 l0.84 -1.24 c0.18 -0.28 0.56 -0.34 0.84 -0.16 c0.58 0.36 1.16 0.68 1.76 0.96 c0.78 0.38 1.6 0.56 2.46 0.56 c0.46 0 0.86 -0.06 1.2 -0.18 c0.34 -0.1 0.64 -0.26 0.88 -0.44 s0.42 -0.38 0.54 -0.62 c0.12 -0.22 0.18 -0.46 0.18 -0.68 c0 -0.3 -0.1 -0.54 -0.28 -0.76 c-0.18 -0.2 -0.42 -0.36 -0.72 -0.5 s-0.64 -0.24 -1.06 -0.34 c-0.4 -0.1 -0.82 -0.18 -1.26 -0.26 c-0.3 -0.06 -0.64 -0.12 -1.02 -0.2 c-0.38 -0.06 -0.78 -0.16 -1.2 -0.3 c-0.42 -0.12 -0.82 -0.28 -1.22 -0.5 c-0.4 -0.2 -0.76 -0.46 -1.08 -0.78 c-0.32 -0.3 -0.58 -0.68 -0.78 -1.12 c-0.18 -0.42 -0.28 -0.94 -0.28 -1.52 c0 -0.86 0.18 -1.56 0.52 -2.14 c0.34 -0.56 0.78 -1 1.32 -1.34 c0.54 -0.32 1.14 -0.54 1.8 -0.68 s1.3 -0.2 1.92 -0.2 s1.16 0.04 1.64 0.12 s0.92 0.2 1.34 0.34 c0.42 0.16 0.82 0.36 1.2 0.58 c0.26 0.16 0.5 0.32 0.78 0.48 c0.28 0.2 0.34 0.58 0.14 0.86 l-0.84 1.2 c-0.2 0.28 -0.58 0.34 -0.88 0.16 c-0.5 -0.32 -1 -0.58 -1.48 -0.76 c-0.64 -0.26 -1.32 -0.38 -2.02 -0.38 c-0.24 0 -0.52 0.02 -0.82 0.08 s-0.6 0.16 -0.88 0.3 c-0.26 0.14 -0.5 0.3 -0.68 0.5 c-0.18 0.22 -0.26 0.46 -0.26 0.76 s0.1 0.54 0.32 0.74 s0.48 0.36 0.82 0.5 s0.7 0.24 1.1 0.34 s0.78 0.18 1.16 0.28 c0.28 0.06 0.6 0.14 0.98 0.2 s0.78 0.16 1.18 0.28 c0.22 0.06 0.44 0.14 0.66 0.22 c0.32 0.14 0.8 0.38 1.08 0.58 c0.2 0.12 0.38 0.28 0.54 0.44 c0.32 0.32 0.58 0.7 0.76 1.16 c0.2 0.46 0.3 1.02 0.3 1.68 c0 0.76 -0.14 1.42 -0.4 1.98 s-0.64 1.02 -1.14 1.38 c-0.5 0.38 -1.08 0.66 -1.76 0.84 s-1.44 0.28 -2.26 0.28 c-0.76 0 -1.44 -0.06 -2.02 -0.18 c-0.58 -0.1 -1.1 -0.26 -1.58 -0.46 c-0.48 -0.18 -0.94 -0.42 -1.36 -0.68 c-0.26 -0.16 -0.54 -0.34 -0.82 -0.54 c-0.28 -0.18 -0.34 -0.56 -0.16 -0.84 z M197.07999999999998 20 l-1.58 0 c-0.34 0 -0.6 -0.28 -0.6 -0.62 l0 -13.38 c0 -0.34 0.26 -0.62 0.6 -0.62 l1.58 0 c0.34 0 0.62 0.28 0.62 0.62 l0 13.38 c0 0.34 -0.28 0.62 -0.62 0.62 z M204.1 11.92 l0 7.46 c0 0.34 -0.28 0.62 -0.62 0.62 l-1.58 0 c-0.32 0 -0.6 -0.28 -0.6 -0.62 l0 -13.68 c0 -0.34 0.44 -0.42 0.68 -0.2 l8.78 8.3 c0.26 0.24 0.46 0.14 0.46 -0.2 l0 -7.6 c0 -0.34 0.28 -0.62 0.62 -0.62 l1.56 0 c0.34 0 0.62 0.28 0.62 0.62 l0 13.66 c0 0.34 -0.44 0.42 -0.7 0.2 l-8.76 -8.16 c-0.26 -0.22 -0.46 -0.12 -0.46 0.22 z M220.01999999999998 8.46 l0 2.42 c0 0.34 0.28 0.62 0.62 0.62 l5.84 0 c0.34 0 0.62 0.28 0.62 0.62 l0 1.3 c0 0.34 -0.28 0.62 -0.62 0.62 l-5.84 0 c-0.34 0 -0.62 0.28 -0.62 0.62 l0 2.2 c0 0.34 0.28 0.62 0.62 0.62 l6.74 0 c0.34 0 0.62 0.28 0.62 0.62 l0 1.28 c0 0.34 -0.28 0.62 -0.62 0.62 l-9.54 0 c-0.34 0 -0.62 -0.28 -0.62 -0.62 l0 -13.4 c0 -0.34 0.28 -0.62 0.62 -0.62 l9.54 0 c0.34 0 0.62 0.28 0.62 0.62 l0 1.24 c0 0.34 -0.28 0.62 -0.62 0.62 l-6.74 0 c-0.34 0 -0.62 0.28 -0.62 0.62 z M230.64 17.58 l0.84 -1.24 c0.18 -0.28 0.56 -0.34 0.84 -0.16 c0.58 0.36 1.16 0.68 1.76 0.96 c0.78 0.38 1.6 0.56 2.46 0.56 c0.46 0 0.86 -0.06 1.2 -0.18 c0.34 -0.1 0.64 -0.26 0.88 -0.44 s0.42 -0.38 0.54 -0.62 c0.12 -0.22 0.18 -0.46 0.18 -0.68 c0 -0.3 -0.1 -0.54 -0.28 -0.76 c-0.18 -0.2 -0.42 -0.36 -0.72 -0.5 s-0.64 -0.24 -1.06 -0.34 c-0.4 -0.1 -0.82 -0.18 -1.26 -0.26 c-0.3 -0.06 -0.64 -0.12 -1.02 -0.2 c-0.38 -0.06 -0.78 -0.16 -1.2 -0.3 c-0.42 -0.12 -0.82 -0.28 -1.22 -0.5 c-0.4 -0.2 -0.76 -0.46 -1.08 -0.78 c-0.32 -0.3 -0.58 -0.68 -0.78 -1.12 c-0.18 -0.42 -0.28 -0.94 -0.28 -1.52 c0 -0.86 0.18 -1.56 0.52 -2.14 c0.34 -0.56 0.78 -1 1.32 -1.34 c0.54 -0.32 1.14 -0.54 1.8 -0.68 s1.3 -0.2 1.92 -0.2 s1.16 0.04 1.64 0.12 s0.92 0.2 1.34 0.34 c0.42 0.16 0.82 0.36 1.2 0.58 c0.26 0.16 0.5 0.32 0.78 0.48 c0.28 0.2 0.34 0.58 0.14 0.86 l-0.84 1.2 c-0.2 0.28 -0.58 0.34 -0.88 0.16 c-0.5 -0.32 -1 -0.58 -1.48 -0.76 c-0.64 -0.26 -1.32 -0.38 -2.02 -0.38 c-0.24 0 -0.52 0.02 -0.82 0.08 s-0.6 0.16 -0.88 0.3 c-0.26 0.14 -0.5 0.3 -0.68 0.5 c-0.18 0.22 -0.26 0.46 -0.26 0.76 s0.1 0.54 0.32 0.74 s0.48 0.36 0.82 0.5 s0.7 0.24 1.1 0.34 s0.78 0.18 1.16 0.28 c0.28 0.06 0.6 0.14 0.98 0.2 s0.78 0.16 1.18 0.28 c0.22 0.06 0.44 0.14 0.66 0.22 c0.32 0.14 0.8 0.38 1.08 0.58 c0.2 0.12 0.38 0.28 0.54 0.44 c0.32 0.32 0.58 0.7 0.76 1.16 c0.2 0.46 0.3 1.02 0.3 1.68 c0 0.76 -0.14 1.42 -0.4 1.98 s-0.64 1.02 -1.14 1.38 c-0.5 0.38 -1.08 0.66 -1.76 0.84 s-1.44 0.28 -2.26 0.28 c-0.76 0 -1.44 -0.06 -2.02 -0.18 c-0.58 -0.1 -1.1 -0.26 -1.58 -0.46 c-0.48 -0.18 -0.94 -0.42 -1.36 -0.68 c-0.26 -0.16 -0.54 -0.34 -0.82 -0.54 c-0.28 -0.18 -0.34 -0.56 -0.16 -0.84 z M244.23999999999998 17.58 l0.84 -1.24 c0.18 -0.28 0.56 -0.34 0.84 -0.16 c0.58 0.36 1.16 0.68 1.76 0.96 c0.78 0.38 1.6 0.56 2.46 0.56 c0.46 0 0.86 -0.06 1.2 -0.18 c0.34 -0.1 0.64 -0.26 0.88 -0.44 s0.42 -0.38 0.54 -0.62 c0.12 -0.22 0.18 -0.46 0.18 -0.68 c0 -0.3 -0.1 -0.54 -0.28 -0.76 c-0.18 -0.2 -0.42 -0.36 -0.72 -0.5 s-0.64 -0.24 -1.06 -0.34 c-0.4 -0.1 -0.82 -0.18 -1.26 -0.26 c-0.3 -0.06 -0.64 -0.12 -1.02 -0.2 c-0.38 -0.06 -0.78 -0.16 -1.2 -0.3 c-0.42 -0.12 -0.82 -0.28 -1.22 -0.5 c-0.4 -0.2 -0.76 -0.46 -1.08 -0.78 c-0.32 -0.3 -0.58 -0.68 -0.78 -1.12 c-0.18 -0.42 -0.28 -0.94 -0.28 -1.52 c0 -0.86 0.18 -1.56 0.52 -2.14 c0.34 -0.56 0.78 -1 1.32 -1.34 c0.54 -0.32 1.14 -0.54 1.8 -0.68 s1.3 -0.2 1.92 -0.2 s1.16 0.04 1.64 0.12 s0.92 0.2 1.34 0.34 c0.42 0.16 0.82 0.36 1.2 0.58 c0.26 0.16 0.5 0.32 0.78 0.48 c0.28 0.2 0.34 0.58 0.14 0.86 l-0.84 1.2 c-0.2 0.28 -0.58 0.34 -0.88 0.16 c-0.5 -0.32 -1 -0.58 -1.48 -0.76 c-0.64 -0.26 -1.32 -0.38 -2.02 -0.38 c-0.24 0 -0.52 0.02 -0.82 0.08 s-0.6 0.16 -0.88 0.3 c-0.26 0.14 -0.5 0.3 -0.68 0.5 c-0.18 0.22 -0.26 0.46 -0.26 0.76 s0.1 0.54 0.32 0.74 s0.48 0.36 0.82 0.5 s0.7 0.24 1.1 0.34 s0.78 0.18 1.16 0.28 c0.28 0.06 0.6 0.14 0.98 0.2 s0.78 0.16 1.18 0.28 c0.22 0.06 0.44 0.14 0.66 0.22 c0.32 0.14 0.8 0.38 1.08 0.58 c0.2 0.12 0.38 0.28 0.54 0.44 c0.32 0.32 0.58 0.7 0.76 1.16 c0.2 0.46 0.3 1.02 0.3 1.68 c0 0.76 -0.14 1.42 -0.4 1.98 s-0.64 1.02 -1.14 1.38 c-0.5 0.38 -1.08 0.66 -1.76 0.84 s-1.44 0.28 -2.26 0.28 c-0.76 0 -1.44 -0.06 -2.02 -0.18 c-0.58 -0.1 -1.1 -0.26 -1.58 -0.46 c-0.48 -0.18 -0.94 -0.42 -1.36 -0.68 c-0.26 -0.16 -0.54 -0.34 -0.82 -0.54 c-0.28 -0.18 -0.34 -0.56 -0.16 -0.84 z  M267.49999999999994 20 l-1.58 0 c-0.34 0 -0.6 -0.28 -0.6 -0.62 l0 -13.38 c0 -0.34 0.26 -0.62 0.6 -0.62 l1.58 0 c0.34 0 0.62 0.28 0.62 0.62 l0 13.38 c0 0.34 -0.28 0.62 -0.62 0.62 z M274.5199999999999 11.92 l0 7.46 c0 0.34 -0.28 0.62 -0.62 0.62 l-1.58 0 c-0.32 0 -0.6 -0.28 -0.6 -0.62 l0 -13.68 c0 -0.34 0.44 -0.42 0.68 -0.2 l8.78 8.3 c0.26 0.24 0.46 0.14 0.46 -0.2 l0 -7.6 c0 -0.34 0.28 -0.62 0.62 -0.62 l1.56 0 c0.34 0 0.62 0.28 0.62 0.62 l0 13.66 c0 0.34 -0.44 0.42 -0.7 0.2 l-8.76 -8.16 c-0.26 -0.22 -0.46 -0.12 -0.46 0.22 z M297.53999999999996 7.84 l-2.94 0 c-0.34 0 -0.62 0.28 -0.62 0.62 l0 10.92 c0 0.34 -0.28 0.62 -0.62 0.62 l-1.56 0 c-0.34 0 -0.62 -0.28 -0.62 -0.62 l0 -10.92 c0 -0.34 -0.28 -0.62 -0.62 -0.62 l-2.96 0 c-0.34 0 -0.62 -0.28 -0.62 -0.62 l0 -1.24 c0 -0.34 0.28 -0.62 0.62 -0.62 l9.94 0 c0.34 0 0.62 0.28 0.62 0.62 l0 1.24 c0 0.34 -0.28 0.62 -0.62 0.62 z M302.87999999999994 8.46 l0 2.42 c0 0.34 0.28 0.62 0.62 0.62 l5.84 0 c0.34 0 0.62 0.28 0.62 0.62 l0 1.3 c0 0.34 -0.28 0.62 -0.62 0.62 l-5.84 0 c-0.34 0 -0.62 0.28 -0.62 0.62 l0 2.2 c0 0.34 0.28 0.62 0.62 0.62 l6.74 0 c0.34 0 0.62 0.28 0.62 0.62 l0 1.28 c0 0.34 -0.28 0.62 -0.62 0.62 l-9.54 0 c-0.34 0 -0.62 -0.28 -0.62 -0.62 l0 -13.4 c0 -0.34 0.28 -0.62 0.62 -0.62 l9.54 0 c0.34 0 0.62 0.28 0.62 0.62 l0 1.24 c0 0.34 -0.28 0.62 -0.62 0.62 l-6.74 0 c-0.34 0 -0.62 0.28 -0.62 0.62 z M324.28 18.14 l0 1.24 c0 0.34 -0.28 0.62 -0.62 0.62 l-9.3 0 c-0.34 0 -0.62 -0.28 -0.62 -0.62 l0 -13.4 c0 -0.34 0.28 -0.62 0.62 -0.62 l1.56 0 c0.34 0 0.62 0.28 0.62 0.62 l0 10.92 c0 0.34 0.28 0.62 0.62 0.62 l6.5 0 c0.34 0 0.62 0.28 0.62 0.62 z M336.58 18.14 l0 1.24 c0 0.34 -0.28 0.62 -0.62 0.62 l-9.3 0 c-0.34 0 -0.62 -0.28 -0.62 -0.62 l0 -13.4 c0 -0.34 0.28 -0.62 0.62 -0.62 l1.56 0 c0.34 0 0.62 0.28 0.62 0.62 l0 10.92 c0 0.34 0.28 0.62 0.62 0.62 l6.5 0 c0.34 0 0.62 0.28 0.62 0.62 z M340.92 20 l-1.58 0 c-0.34 0 -0.6 -0.28 -0.6 -0.62 l0 -13.38 c0 -0.34 0.26 -0.62 0.6 -0.62 l1.58 0 c0.34 0 0.62 0.28 0.62 0.62 l0 13.38 c0 0.34 -0.28 0.62 -0.62 0.62 z M359.36 12.620000000000001 c-0.02 0.54 -0.04 1.18 -0.06 1.26 c-0.08 0.92 -0.32 1.78 -0.74 2.56 s-0.96 1.46 -1.62 2.02 c-0.66 0.58 -1.42 1.02 -2.28 1.34 s-1.78 0.48 -2.72 0.48 c-1.04 0 -2.02 -0.2 -2.94 -0.6 s-1.72 -0.94 -2.42 -1.64 c-0.68 -0.68 -1.24 -1.48 -1.64 -2.4 s-0.6 -1.9 -0.6 -2.94 s0.2 -2.02 0.6 -2.96 c0.4 -0.92 0.96 -1.72 1.64 -2.42 c0.7 -0.68 1.5 -1.22 2.42 -1.62 s1.9 -0.6 2.94 -0.6 c1.32 0 2.54 0.3 3.64 0.92 c0.9 0.5 1.68 1.16 2.3 1.96 c0.22 0.26 0.12 0.64 -0.16 0.82 l-1.36 0.82 c-0.28 0.18 -0.66 0.08 -0.9 -0.16 c-0.36 -0.42 -0.78 -0.8 -1.28 -1.1 c-0.7 -0.42 -1.44 -0.64 -2.24 -0.64 c-0.66 0 -1.28 0.14 -1.86 0.4 c-0.58 0.28 -1.1 0.64 -1.52 1.1 c-0.44 0.46 -0.78 0.98 -1.04 1.58 c-0.26 0.62 -0.38 1.24 -0.38 1.9 s0.12 1.3 0.38 1.9 s0.6 1.12 1.04 1.58 c0.42 0.46 0.94 0.82 1.52 1.08 c0.58 0.28 1.2 0.42 1.86 0.42 c0.5 0 1 -0.08 1.46 -0.24 c0.46 -0.14 0.9 -0.36 1.28 -0.64 s0.72 -0.62 1.02 -1 c0.16 -0.22 0.3 -0.46 0.4 -0.7 c0.16 -0.32 -0.06 -0.58 -0.4 -0.58 l-4.16 0 c-0.34 0 -0.62 -0.28 -0.62 -0.62 l0 -1.28 c0 -0.34 0.28 -0.62 0.62 -0.62 l7.2 0 c0.34 0 0.62 0.28 0.62 0.62 z M364.5 8.46 l0 2.42 c0 0.34 0.28 0.62 0.62 0.62 l5.84 0 c0.34 0 0.62 0.28 0.62 0.62 l0 1.3 c0 0.34 -0.28 0.62 -0.62 0.62 l-5.84 0 c-0.34 0 -0.62 0.28 -0.62 0.62 l0 2.2 c0 0.34 0.28 0.62 0.62 0.62 l6.74 0 c0.34 0 0.62 0.28 0.62 0.62 l0 1.28 c0 0.34 -0.28 0.62 -0.62 0.62 l-9.54 0 c-0.34 0 -0.62 -0.28 -0.62 -0.62 l0 -13.4 c0 -0.34 0.28 -0.62 0.62 -0.62 l9.54 0 c0.34 0 0.62 0.28 0.62 0.62 l0 1.24 c0 0.34 -0.28 0.62 -0.62 0.62 l-6.74 0 c-0.34 0 -0.62 0.28 -0.62 0.62 z M378.16 11.92 l0 7.46 c0 0.34 -0.28 0.62 -0.62 0.62 l-1.58 0 c-0.32 0 -0.6 -0.28 -0.6 -0.62 l0 -13.68 c0 -0.34 0.44 -0.42 0.68 -0.2 l8.78 8.3 c0.26 0.24 0.46 0.14 0.46 -0.2 l0 -7.6 c0 -0.34 0.28 -0.62 0.62 -0.62 l1.56 0 c0.34 0 0.62 0.28 0.62 0.62 l0 13.66 c0 0.34 -0.44 0.42 -0.7 0.2 l-8.76 -8.16 c-0.26 -0.22 -0.46 -0.12 -0.46 0.22 z M404.36000000000007 16.92 c-0.26 0.38 -0.54 0.74 -0.86 1.06 c-0.46 0.48 -0.98 0.88 -1.56 1.22 c-0.56 0.34 -1.18 0.62 -1.84 0.8 s-1.34 0.28 -2.04 0.28 c-1.04 0 -2.02 -0.2 -2.94 -0.6 s-1.72 -0.94 -2.42 -1.64 c-0.68 -0.68 -1.22 -1.48 -1.62 -2.4 s-0.6 -1.9 -0.6 -2.94 s0.2 -2.02 0.6 -2.94 s0.94 -1.72 1.62 -2.42 c0.7 -0.68 1.5 -1.22 2.42 -1.62 s1.9 -0.6 2.94 -0.6 c0.7 0 1.38 0.1 2.04 0.28 s1.28 0.44 1.84 0.78 c0.58 0.34 1.1 0.76 1.56 1.22 c0.32 0.34 0.6 0.68 0.86 1.06 c0.18 0.28 0.06 0.62 -0.26 0.74 l-1.48 0.6 c-0.3 0.14 -0.7 0.02 -0.92 -0.24 c-0.12 -0.14 -0.26 -0.28 -0.4 -0.42 c-0.28 -0.28 -0.6 -0.52 -0.94 -0.74 s-0.72 -0.38 -1.1 -0.5 s-0.78 -0.18 -1.2 -0.18 c-0.66 0 -1.3 0.14 -1.88 0.4 c-0.58 0.28 -1.08 0.64 -1.5 1.1 s-0.76 0.98 -1.02 1.58 c-0.26 0.62 -0.38 1.24 -0.38 1.9 s0.12 1.3 0.38 1.9 s0.6 1.12 1.02 1.58 s0.92 0.82 1.5 1.08 c0.58 0.28 1.22 0.42 1.88 0.42 c0.42 0 0.82 -0.06 1.2 -0.18 s0.76 -0.28 1.1 -0.5 s0.66 -0.46 0.94 -0.76 c0.14 -0.14 0.28 -0.28 0.4 -0.42 c0.22 -0.26 0.62 -0.38 0.92 -0.26 l1.48 0.6 c0.32 0.14 0.44 0.48 0.26 0.76 z M409.64000000000004 8.46 l0 2.42 c0 0.34 0.28 0.62 0.62 0.62 l5.84 0 c0.34 0 0.62 0.28 0.62 0.62 l0 1.3 c0 0.34 -0.28 0.62 -0.62 0.62 l-5.84 0 c-0.34 0 -0.62 0.28 -0.62 0.62 l0 2.2 c0 0.34 0.28 0.62 0.62 0.62 l6.74 0 c0.34 0 0.62 0.28 0.62 0.62 l0 1.28 c0 0.34 -0.28 0.62 -0.62 0.62 l-9.54 0 c-0.34 0 -0.62 -0.28 -0.62 -0.62 l0 -13.4 c0 -0.34 0.28 -0.62 0.62 -0.62 l9.54 0 c0.34 0 0.62 0.28 0.62 0.62 l0 1.24 c0 0.34 -0.28 0.62 -0.62 0.62 l-6.74 0 c-0.34 0 -0.62 0.28 -0.62 0.62 z"></path></g>
			</g>
		</svg>
	